<mxfile host="drawio-plugin" modified="2022-04-12T14:08:02.482Z" agent="5.0 (Windows NT 6.2; Win64; x64) AppleWebKit/537.36 (KHTML, like Gecko) Chrome/87.0.4280.141 Safari/537.36" etag="NkJ_QfGIPFz2TABs-evK" version="15.5.4" type="embed"><diagram id="SjCC7z4dqcIdZo4etbtv" name="第 1 页"><mxGraphModel dx="1880" dy="708" grid="1" gridSize="10" guides="1" tooltips="1" connect="1" arrows="1" fold="1" page="1" pageScale="1" pageWidth="827" pageHeight="1169" background="#FFFFFF" math="0" shadow="0"><root><mxCell id="0"/><mxCell id="1" parent="0"/><mxCell id="17" style="html=1;exitX=0.5;exitY=0.5;exitDx=0;exitDy=15;exitPerimeter=0;entryX=0.5;entryY=0;entryDx=0;entryDy=0;rounded=0;edgeStyle=elbowEdgeStyle;elbow=vertical;" parent="1" source="2" target="3" edge="1"><mxGeometry relative="1" as="geometry"/></mxCell><mxCell id="2" value="登录页" style="html=1;dashed=0;whitespace=wrap;shape=mxgraph.dfd.start;rounded=0;" parent="1" vertex="1"><mxGeometry x="110" y="10" width="80" height="30" as="geometry"/></mxCell><mxCell id="5" value="是" style="html=1;exitX=0.5;exitY=1;exitDx=0;exitDy=0;rounded=0;edgeStyle=elbowEdgeStyle;elbow=vertical;" parent="1" source="3" edge="1"><mxGeometry relative="1" as="geometry"><mxPoint x="150" y="240" as="targetPoint"/></mxGeometry></mxCell><mxCell id="6" value="否" style="html=1;exitX=1;exitY=0.5;exitDx=0;exitDy=0;rounded=0;edgeStyle=elbowEdgeStyle;elbow=vertical;" parent="1" source="3" edge="1"><mxGeometry relative="1" as="geometry"><mxPoint x="290" y="120" as="targetPoint"/></mxGeometry></mxCell><mxCell id="3" value="登录&lt;br&gt;是否注册" style="rhombus;whiteSpace=wrap;html=1;rounded=0;" parent="1" vertex="1"><mxGeometry x="110" y="100" width="80" height="40" as="geometry"/></mxCell><mxCell id="15" style="html=1;exitX=0.5;exitY=0;exitDx=0;exitDy=0;rounded=0;edgeStyle=elbowEdgeStyle;elbow=vertical;" parent="1" source="7" edge="1"><mxGeometry relative="1" as="geometry"><mxPoint x="150" y="80" as="targetPoint"/><mxPoint x="350" y="80" as="sourcePoint"/></mxGeometry></mxCell><mxCell id="16" value="完成注册自动登录" style="edgeLabel;html=1;align=center;verticalAlign=middle;resizable=0;points=[];rounded=0;" parent="15" vertex="1" connectable="0"><mxGeometry x="0.1621" y="-2" relative="1" as="geometry"><mxPoint as="offset"/></mxGeometry></mxCell><mxCell id="7" value="跳转注册" style="rounded=0;whiteSpace=wrap;html=1;" parent="1" vertex="1"><mxGeometry x="290" y="100" width="86" height="40" as="geometry"/></mxCell><mxCell id="8" value="进入主页" style="swimlane;startSize=20;horizontal=1;containerType=tree;newEdgeStyle={&quot;edgeStyle&quot;:&quot;elbowEdgeStyle&quot;,&quot;startArrow&quot;:&quot;none&quot;,&quot;endArrow&quot;:&quot;none&quot;};rounded=0;" parent="1" vertex="1"><mxGeometry x="10" y="240" width="540" height="120" as="geometry"/></mxCell><mxCell id="19" style="html=1;exitX=1;exitY=0.5;exitDx=0;exitDy=0;entryX=0;entryY=0.5;entryDx=0;entryDy=0;rounded=0;edgeStyle=elbowEdgeStyle;elbow=vertical;" parent="8" source="11" target="18" edge="1"><mxGeometry relative="1" as="geometry"/></mxCell><UserObject label="向store写入用户信息" treeRoot="1" id="11"><mxCell style="whiteSpace=wrap;html=1;align=center;treeFolding=1;treeMoving=1;newEdgeStyle={&quot;edgeStyle&quot;:&quot;elbowEdgeStyle&quot;,&quot;startArrow&quot;:&quot;none&quot;,&quot;endArrow&quot;:&quot;none&quot;};rounded=0;" parent="8" vertex="1"><mxGeometry x="10" y="40" width="120" height="60" as="geometry"/></mxCell></UserObject><UserObject label="建立ws链接，用于接受相关推送和通知" treeRoot="1" id="18"><mxCell style="whiteSpace=wrap;html=1;align=center;treeFolding=1;treeMoving=1;newEdgeStyle={&quot;edgeStyle&quot;:&quot;elbowEdgeStyle&quot;,&quot;startArrow&quot;:&quot;none&quot;,&quot;endArrow&quot;:&quot;none&quot;};rounded=0;" parent="8" vertex="1"><mxGeometry x="140" y="40" width="120" height="60" as="geometry"/></mxCell></UserObject><mxCell id="23" style="html=1;exitX=1;exitY=0.5;exitDx=0;exitDy=0;entryX=0;entryY=0.5;entryDx=0;entryDy=0;rounded=0;edgeStyle=elbowEdgeStyle;elbow=vertical;" parent="8" source="21" target="22" edge="1"><mxGeometry relative="1" as="geometry"/></mxCell><UserObject label="修改用户在线状态" treeRoot="1" id="21"><mxCell style="whiteSpace=wrap;html=1;align=center;treeFolding=1;treeMoving=1;newEdgeStyle={&quot;edgeStyle&quot;:&quot;elbowEdgeStyle&quot;,&quot;startArrow&quot;:&quot;none&quot;,&quot;endArrow&quot;:&quot;none&quot;};rounded=0;" parent="8" vertex="1"><mxGeometry x="280" y="40" width="120" height="60" as="geometry"/></mxCell></UserObject><UserObject label="从服务端拉取聊天列表" treeRoot="1" id="22"><mxCell style="whiteSpace=wrap;html=1;align=center;treeFolding=1;treeMoving=1;newEdgeStyle={&quot;edgeStyle&quot;:&quot;elbowEdgeStyle&quot;,&quot;startArrow&quot;:&quot;none&quot;,&quot;endArrow&quot;:&quot;none&quot;};rounded=0;" parent="8" vertex="1"><mxGeometry x="410" y="40" width="120" height="60" as="geometry"/></mxCell></UserObject><mxCell id="20" style="html=1;exitX=1;exitY=0.5;exitDx=0;exitDy=0;rounded=0;edgeStyle=elbowEdgeStyle;elbow=vertical;" parent="1" source="18" edge="1"><mxGeometry relative="1" as="geometry"><mxPoint x="290" y="310" as="targetPoint"/></mxGeometry></mxCell><mxCell id="34" value="主页功能" style="swimlane;startSize=20;horizontal=1;childLayout=treeLayout;horizontalTree=0;resizable=0;containerType=tree;rounded=0;" parent="1" vertex="1"><mxGeometry x="-810" y="20" width="721" height="312" as="geometry"/></mxCell><mxCell id="42" style="html=1;exitX=0.5;exitY=1;exitDx=0;exitDy=0;entryX=0.5;entryY=0;entryDx=0;entryDy=0;rounded=0;edgeStyle=elbowEdgeStyle;elbow=vertical;" parent="34" source="35" target="40" edge="1"><mxGeometry relative="1" as="geometry"/></mxCell><mxCell id="43" style="html=1;exitX=0.5;exitY=1;exitDx=0;exitDy=0;entryX=0.5;entryY=0;entryDx=0;entryDy=0;rounded=0;edgeStyle=elbowEdgeStyle;elbow=vertical;" parent="34" source="35" target="41" edge="1"><mxGeometry relative="1" as="geometry"/></mxCell><mxCell id="46" style="html=1;exitX=0.5;exitY=1;exitDx=0;exitDy=0;entryX=0.5;entryY=0;entryDx=0;entryDy=0;rounded=0;edgeStyle=elbowEdgeStyle;elbow=vertical;" parent="34" source="35" target="45" edge="1"><mxGeometry relative="1" as="geometry"/></mxCell><mxCell id="35" value="主页" style="whiteSpace=wrap;html=1;rounded=0;" parent="34" vertex="1"><mxGeometry x="310.5" y="40" width="100" height="40" as="geometry"/></mxCell><mxCell id="56" style="html=1;exitX=0.5;exitY=1;exitDx=0;exitDy=0;entryX=0.5;entryY=0;entryDx=0;entryDy=0;rounded=0;edgeStyle=elbowEdgeStyle;elbow=vertical;" parent="34" source="36" target="47" edge="1"><mxGeometry relative="1" as="geometry"/></mxCell><mxCell id="36" value="聊天列表" style="whiteSpace=wrap;html=1;rounded=0;" parent="34" vertex="1"><mxGeometry x="20" y="130" width="100" height="40" as="geometry"/></mxCell><mxCell id="37" value="" style="html=1;rounded=0;edgeStyle=elbowEdgeStyle;elbow=vertical;" parent="34" source="35" target="36" edge="1"><mxGeometry relative="1" as="geometry"/></mxCell><mxCell id="53" style="html=1;exitX=0.5;exitY=1;exitDx=0;exitDy=0;entryX=0.5;entryY=0;entryDx=0;entryDy=0;rounded=0;edgeStyle=elbowEdgeStyle;elbow=vertical;" parent="34" source="38" target="50" edge="1"><mxGeometry relative="1" as="geometry"/></mxCell><mxCell id="38" value="好友分组" style="whiteSpace=wrap;html=1;rounded=0;" parent="34" vertex="1"><mxGeometry x="461" y="130" width="100" height="40" as="geometry"/></mxCell><mxCell id="39" value="" style="html=1;rounded=0;edgeStyle=elbowEdgeStyle;elbow=vertical;" parent="34" source="35" target="38" edge="1"><mxGeometry relative="1" as="geometry"/></mxCell><mxCell id="55" style="html=1;exitX=0.5;exitY=1;exitDx=0;exitDy=0;rounded=0;edgeStyle=elbowEdgeStyle;elbow=vertical;" parent="34" source="40" target="48" edge="1"><mxGeometry relative="1" as="geometry"/></mxCell><mxCell id="40" value="添加好友" style="whiteSpace=wrap;html=1;rounded=0;" parent="34" vertex="1"><mxGeometry x="160" y="130" width="100" height="40" as="geometry"/></mxCell><mxCell id="54" style="html=1;exitX=0.5;exitY=1;exitDx=0;exitDy=0;rounded=0;edgeStyle=elbowEdgeStyle;elbow=vertical;" parent="34" source="41" target="49" edge="1"><mxGeometry relative="1" as="geometry"/></mxCell><mxCell id="41" value="功能区" style="whiteSpace=wrap;html=1;rounded=0;" parent="34" vertex="1"><mxGeometry x="310.5" y="130" width="100" height="40" as="geometry"/></mxCell><mxCell id="52" style="html=1;exitX=0.5;exitY=1;exitDx=0;exitDy=0;entryX=0.5;entryY=0;entryDx=0;entryDy=0;rounded=0;edgeStyle=elbowEdgeStyle;elbow=vertical;" parent="34" source="45" target="51" edge="1"><mxGeometry relative="1" as="geometry"/></mxCell><mxCell id="45" value="点击用户头像" style="whiteSpace=wrap;html=1;rounded=0;" parent="34" vertex="1"><mxGeometry x="601" y="130" width="100" height="40" as="geometry"/></mxCell><mxCell id="47" value="点击消息条，右侧切换为对应聊天界面" style="whiteSpace=wrap;html=1;rounded=0;" parent="34" vertex="1"><mxGeometry x="20" y="221.00000000000003" width="100" height="40" as="geometry"/></mxCell><mxCell id="48" value="弹出搜索用户框&lt;br&gt;（可以根据id搜索）" style="whiteSpace=wrap;html=1;rounded=0;" parent="34" vertex="1"><mxGeometry x="160" y="221.00000000000003" width="100" height="40" as="geometry"/></mxCell><mxCell id="49" value="显示天气（不可点击）&lt;br&gt;音乐播放器（可能会有）" style="whiteSpace=wrap;html=1;rounded=0;" parent="34" vertex="1"><mxGeometry x="300" y="220" width="121" height="72" as="geometry"/></mxCell><mxCell id="50" value="左侧消息列表切换为分组列表" style="whiteSpace=wrap;html=1;rounded=0;" parent="34" vertex="1"><mxGeometry x="461" y="220" width="100" height="40" as="geometry"/></mxCell><mxCell id="51" value="弹出用户信息（可编辑）" style="whiteSpace=wrap;html=1;rounded=0;" parent="34" vertex="1"><mxGeometry x="601" y="220" width="100" height="40" as="geometry"/></mxCell><mxCell id="57" value="好友聊天" style="swimlane;startSize=20;horizontal=1;childLayout=treeLayout;horizontalTree=0;resizable=0;containerType=tree;swimlaneLine=1;rounded=0;shadow=0;sketch=0;glass=0;" parent="1" vertex="1"><mxGeometry x="-810" y="380" width="560" height="190" as="geometry"/></mxCell><mxCell id="73" style="html=1;entryX=0.5;entryY=0;entryDx=0;entryDy=0;exitX=0.5;exitY=1;exitDx=0;exitDy=0;edgeStyle=elbowEdgeStyle;elbow=vertical;rounded=0;" parent="57" source="58" target="71" edge="1"><mxGeometry relative="1" as="geometry"/></mxCell><mxCell id="74" style="html=1;entryX=0.5;entryY=0;entryDx=0;entryDy=0;edgeStyle=elbowEdgeStyle;elbow=vertical;rounded=0;exitX=0.5;exitY=1;exitDx=0;exitDy=0;" parent="57" source="58" target="72" edge="1"><mxGeometry relative="1" as="geometry"><mxPoint x="70" y="110" as="sourcePoint"/><Array as="points"/></mxGeometry></mxCell><mxCell id="58" value="好友聊天" style="whiteSpace=wrap;html=1;" parent="57" vertex="1"><mxGeometry x="230" y="40" width="100" height="40" as="geometry"/></mxCell><mxCell id="59" value="语音通话" style="whiteSpace=wrap;html=1;" parent="57" vertex="1"><mxGeometry x="160" y="130" width="100" height="40" as="geometry"/></mxCell><mxCell id="60" value="" style="html=1;rounded=0;edgeStyle=elbowEdgeStyle;elbow=vertical;" parent="57" source="58" target="59" edge="1"><mxGeometry relative="1" as="geometry"/></mxCell><mxCell id="61" value="聊天检索" style="whiteSpace=wrap;html=1;" parent="57" vertex="1"><mxGeometry x="300" y="130" width="100" height="40" as="geometry"/></mxCell><mxCell id="62" value="" style="html=1;rounded=0;edgeStyle=elbowEdgeStyle;elbow=vertical;" parent="57" source="58" target="61" edge="1"><mxGeometry relative="1" as="geometry"/></mxCell><mxCell id="71" value="视频通话" style="whiteSpace=wrap;html=1;" parent="57" vertex="1"><mxGeometry x="20" y="130" width="100" height="40" as="geometry"/></mxCell><mxCell id="72" value="发送消息" style="whiteSpace=wrap;html=1;" parent="57" vertex="1"><mxGeometry x="440" y="130" width="100" height="40" as="geometry"/></mxCell><mxCell id="65" value="群聊" style="swimlane;startSize=20;horizontal=1;childLayout=treeLayout;horizontalTree=0;resizable=0;containerType=tree;" parent="1" vertex="1"><mxGeometry x="-810" y="620" width="280" height="190" as="geometry"/></mxCell><mxCell id="66" value="Root" style="whiteSpace=wrap;html=1;" parent="65" vertex="1"><mxGeometry x="90" y="40" width="100" height="40" as="geometry"/></mxCell><mxCell id="67" value="Child 1" style="whiteSpace=wrap;html=1;" parent="65" vertex="1"><mxGeometry x="20" y="130" width="100" height="40" as="geometry"/></mxCell><mxCell id="68" value="" style="html=1;rounded=0;edgeStyle=elbowEdgeStyle;elbow=vertical;" parent="65" source="66" target="67" edge="1"><mxGeometry relative="1" as="geometry"/></mxCell><mxCell id="69" value="Child 2" style="whiteSpace=wrap;html=1;" parent="65" vertex="1"><mxGeometry x="160" y="130" width="100" height="40" as="geometry"/></mxCell><mxCell id="70" value="" style="html=1;rounded=0;edgeStyle=elbowEdgeStyle;elbow=vertical;" parent="65" source="66" target="69" edge="1"><mxGeometry relative="1" as="geometry"/></mxCell></root></mxGraphModel></diagram></mxfile>